<svg xmlns="http://www.w3.org/2000/svg" width="35" height="35" viewBox="0 0 35 35">
    <path fill="#E76243" fill-rule="evenodd" d="M17.498 0C27.148 0 35 7.851 35 17.499 35 27.149 27.149 35 17.498 35 7.85 35 0 27.15 0 17.499 0 7.85 7.85 0 17.498 0zm6.106 7.548H11.393a3.85 3.85 0 0 0-3.845 3.848v12.211a3.849 3.849 0 0 0 3.845 3.845h12.21a3.85 3.85 0 0 0 3.849-3.845v-12.21a3.85 3.85 0 0 0-3.848-3.849zm-11.147 7.91c-.255.63-.4 1.32-.4 2.04a5.449 5.449 0 0 0 5.442 5.445 5.45 5.45 0 0 0 5.446-5.444 5.45 5.45 0 0 0-.403-2.042h2.97v8.15a1.904 1.904 0 0 1-1.906 1.904H11.394a1.904 1.904 0 0 1-1.907-1.904v-8.15zm5.042-1.46a3.505 3.505 0 0 1 3.505 3.5 3.507 3.507 0 0 1-3.505 3.504 3.507 3.507 0 0 1-3.503-3.503 3.494 3.494 0 0 1 .664-2.042 3.492 3.492 0 0 1 2.84-1.459zm7.652-4.158v3.373l-3.362.01-.014-3.372 2.936-.01h.44z"/>
</svg>
