<svg xmlns="http://www.w3.org/2000/svg" width="32" height="32" viewBox="0 0 32 32">
    <path fill="#CFCFCF" fill-rule="nonzero" d="M24 15.625a.752.752 0 0 0-.75-.75h-6.125V8.75a.752.752 0 0 0-.75-.75h-.75a.752.752 0 0 0-.75.75v6.125H8.75a.752.752 0 0 0-.75.75v.75c0 .413.338.75.75.75h6.125v6.125c0 .412.337.75.75.75h.75c.412 0 .75-.338.75-.75v-6.125h6.125c.412 0 .75-.337.75-.75v-.75zm7.5.375C31.5 7.438 24.562.5 16 .5 7.437.5.5 7.438.5 16c0 8.563 6.937 15.5 15.5 15.5 8.562 0 15.5-6.937 15.5-15.5zm-2 0c0 7.419-6.006 13.5-13.5 13.5-7.419 0-13.5-6.006-13.5-13.5C2.5 8.581 8.506 2.5 16 2.5c7.419 0 13.5 6.006 13.5 13.5z"/>
</svg>
