<svg xmlns="http://www.w3.org/2000/svg" width="22" height="22" viewBox="0 0 22 22">
    <path fill="#FFF" fill-rule="evenodd" d="M10.999 0C17.065 0 22 4.935 22 11s-4.935 11-11.001 11C4.935 22 0 17.065 0 11S4.935 0 10.999 0zm3.838 4.745H7.16a2.42 2.42 0 0 0-2.417 2.418v7.676a2.42 2.42 0 0 0 2.417 2.417h7.676a2.42 2.42 0 0 0 2.418-2.417V7.163a2.42 2.42 0 0 0-2.418-2.418zM7.83 9.715A3.425 3.425 0 0 0 11 14.42a3.426 3.426 0 0 0 3.422-3.42c0-.453-.093-.888-.253-1.284h1.867v5.123c0 .662-.536 1.197-1.198 1.197H7.162a1.197 1.197 0 0 1-1.199-1.197V9.716zM11 8.8a2.203 2.203 0 0 1 2.202 2.2A2.204 2.204 0 0 1 11 13.201 2.204 2.204 0 0 1 8.797 11c.002-.478.156-.921.418-1.283a2.195 2.195 0 0 1 1.784-.917zm4.81-2.614v2.12l-2.114.007-.01-2.12 1.846-.007h.277z"/>
</svg>
