<svg xmlns="http://www.w3.org/2000/svg" width="25" height="25" viewBox="0 0 25 25">
    <path fill="#FFF" fill-rule="evenodd" d="M12.498 0C19.392 0 25 5.608 25 12.5S19.392 25 12.498 25C5.608 25 0 19.392 0 12.5S5.608 0 12.498 0zm4.362 5.392H8.138A2.75 2.75 0 0 0 5.39 8.14v8.722a2.75 2.75 0 0 0 2.747 2.747h8.722a2.75 2.75 0 0 0 2.748-2.747V8.14a2.75 2.75 0 0 0-2.748-2.748zM8.898 11.04c-.182.45-.285.944-.285 1.458a3.892 3.892 0 0 0 3.886 3.889 3.893 3.893 0 0 0 3.89-3.889c0-.514-.106-1.008-.288-1.458h2.122v5.821c0 .753-.61 1.36-1.362 1.36H8.138a1.36 1.36 0 0 1-1.362-1.36v-5.821zm3.601-1.042a2.504 2.504 0 0 1 2.504 2.5 2.505 2.505 0 0 1-2.504 2.502A2.505 2.505 0 0 1 9.997 12.5a2.496 2.496 0 0 1 .474-1.458A2.494 2.494 0 0 1 12.5 9.999zm5.466-2.97v2.409l-2.402.007-.01-2.409 2.097-.007h.315z"/>
</svg>
