<svg xmlns="http://www.w3.org/2000/svg" width="32" height="32" viewBox="0 0 32 32">
    <path fill="#979EA6" fill-rule="evenodd" d="M15.83 0c8.732 0 15.836 7.123 15.836 15.874 0 8.755-7.104 15.876-15.835 15.876C7.103 31.75 0 24.63 0 15.874 0 7.123 7.103 0 15.83 0zm5.525 6.848H10.307a3.487 3.487 0 0 0-3.479 3.49v11.078a3.487 3.487 0 0 0 3.48 3.488h11.047a3.487 3.487 0 0 0 3.481-3.488V10.338c0-1.926-1.56-3.49-3.48-3.49zM11.27 14.022a4.953 4.953 0 0 0-.36 1.852c0 2.722 2.207 4.939 4.922 4.939 2.72 0 4.927-2.217 4.927-4.939 0-.653-.134-1.28-.365-1.852h2.688v7.394c0 .956-.773 1.727-1.725 1.727H10.308a1.725 1.725 0 0 1-1.725-1.727v-7.394zm4.562-1.324c1.06 0 1.996.525 2.573 1.324a3.177 3.177 0 0 1-2.573 5.03 3.177 3.177 0 0 1-3.17-3.178c.003-.69.224-1.33.601-1.852a3.157 3.157 0 0 1 2.569-1.324zm6.923-3.771v3.06l-3.042.009-.013-3.06 2.656-.01h.399z"/>
</svg>
