<svg xmlns="http://www.w3.org/2000/svg" width="20" height="19" viewBox="0 0 20 19">
    <path fill="#FFF" fill-rule="evenodd" d="M18.783.718A2.348 2.348 0 0 0 17.063 0H2.937c-.668 0-1.241.24-1.72.718A2.346 2.346 0 0 0 .5 2.437v14.126c0 .668.24 1.241.718 1.72A2.343 2.343 0 0 0 2.937 19h14.126c.668 0 1.241-.239 1.72-.718a2.343 2.343 0 0 0 .717-1.719V2.437c0-.668-.239-1.241-.717-1.72zM8.19 7.688a3.23 3.23 0 0 1 2.365-.982 3.24 3.24 0 0 1 2.374.981c.656.655.984 1.445.984 2.373 0 .926-.328 1.717-.984 2.37a3.235 3.235 0 0 1-2.374.982 3.23 3.23 0 0 1-2.365-.981 3.228 3.228 0 0 1-.983-2.371c0-.928.328-1.718.983-2.373zm9.076 8.403a.615.615 0 0 1-.22.48.769.769 0 0 1-.524.194H3.479a.758.758 0 0 1-.53-.193.621.621 0 0 1-.214-.48v-7.15h1.72a4.339 4.339 0 0 0-.244 1.444c0 1.413.57 2.618 1.708 3.614 1.14.997 2.51 1.496 4.112 1.496a6.356 6.356 0 0 0 2.928-.684c.894-.457 1.601-1.076 2.123-1.86a4.542 4.542 0 0 0 .536-4.01h1.647v7.15zm0-11.266a.746.746 0 0 1-.215.542.703.703 0 0 1-.527.221h-1.87a.703.703 0 0 1-.526-.221.746.746 0 0 1-.215-.542V2.999c0-.207.071-.386.215-.537a.697.697 0 0 1 .526-.227h1.87c.208 0 .384.076.527.227.143.151.215.33.215.537v1.826z"/>
</svg>
