<svg xmlns="http://www.w3.org/2000/svg" width="146" height="43" viewBox="0 0 146 43">
    <path fill="#E76243" fill-rule="evenodd" d="M21.18 0c11.7 0 21.18 9.481 21.18 21.181 0 11.7-9.48 21.179-21.18 21.179S0 32.881 0 21.181 9.48 0 21.18 0zm0 7.91c-7.33 0-13.28 5.941-13.28 13.271 0 7.33 5.95 13.28 13.28 13.28 7.33 0 13.27-5.95 13.27-13.28 0-7.33-5.94-13.271-13.27-13.271zm0 2.76c2.81 0 5.45 1.091 7.43 3.08a10.408 10.408 0 0 1 3.08 7.431c0 2.809-1.09 5.45-3.08 7.44-.86.859-1.84 1.549-2.91 2.06v-8.64c1.1-.371 1.89-1.4 1.89-2.631a2.77 2.77 0 0 0-2.77-2.769c-1.54 0-2.78 1.24-2.78 2.769 0 1.231.8 2.26 1.9 2.631v9.289c-.89.24-1.82.37-2.76.37-2.81 0-5.45-1.099-7.44-3.079a10.489 10.489 0 0 1-3.08-7.44c0-2.81 1.1-5.451 3.08-7.431.77-.77 1.63-1.399 2.56-1.89v8.431a2.787 2.787 0 0 0-1.9 2.64c0 1.53 1.24 2.769 2.77 2.769s2.77-1.239 2.77-2.769c0-1.22-.78-2.261-1.88-2.63v-9.17c1-.301 2.05-.461 3.12-.461zm98.205.97c1.217 0 2.352.23 3.402.687a8.786 8.786 0 0 1 2.751 1.876 8.764 8.764 0 0 1 1.851 2.79 8.718 8.718 0 0 1 .676 3.427c0 1.217-.225 2.36-.676 3.427a8.885 8.885 0 0 1-1.85 2.801 8.623 8.623 0 0 1-2.752 1.888 8.403 8.403 0 0 1-3.402.69 8.407 8.407 0 0 1-3.402-.69 8.634 8.634 0 0 1-2.75-1.888 8.902 8.902 0 0 1-1.852-2.8 8.712 8.712 0 0 1-.675-3.428c0-1.218.224-2.36.675-3.428a8.884 8.884 0 0 1 1.84-2.789 8.595 8.595 0 0 1 2.75-1.876 8.507 8.507 0 0 1 3.414-.687zm-36.393.45v5.753c.2-.2.583-.425 1.15-.675.567-.25 1.25-.375 2.05-.375.852 0 1.606.158 2.265.475a5.21 5.21 0 0 1 1.688 1.276 5.387 5.387 0 0 1 1.063 1.902 7.37 7.37 0 0 1 .364 2.326c0 .883-.155 1.713-.463 2.488a5.956 5.956 0 0 1-1.326 2.026 6.418 6.418 0 0 1-2.09 1.376c-.816.341-1.733.512-2.75.512a14.75 14.75 0 0 1-2.814-.25 17.345 17.345 0 0 1-1.882-.456l-.207-.068V12.09h2.952zm51.101 0l8.08 11.856V12.09h3.076v16.685h-3.1l-8.156-12.007v12.007h-3.076V12.09h3.176zm-71.512 0l6.328 16.684h-3.502l-1.451-4.227h-6.203l-1.451 4.227H53l6.329-16.684h3.252zm14.332 4.728c.283 0 .538.017.763.05.15.023.302.056.456.1l.232.076-.6 2.776a2.718 2.718 0 0 0-.613-.175 4.77 4.77 0 0 0-.738-.051c-.4 0-.784.068-1.151.202a2.717 2.717 0 0 0-.95.574c-.267.25-.48.55-.638.9-.132.292-.21.613-.231.963l-.007.214v6.328h-2.951V17.044h2.826l.075 1.475c.133-.167.304-.35.513-.55.208-.2.454-.383.738-.55a4.362 4.362 0 0 1 2.276-.601zm20.086.226v11.73h-2.952v-11.73H97zm-11.281 2.325c-.9 0-1.58.23-2.038.688-.413.413-.64.965-.681 1.654l-.007.235v4.427c.233.083.475.147.725.188.25.042.642.062 1.176.062.6 0 1.126-.103 1.576-.312a3.48 3.48 0 0 0 1.863-2.052c.159-.458.238-.93.238-1.413 0-.45-.054-.884-.163-1.3a3.357 3.357 0 0 0-.512-1.114 2.587 2.587 0 0 0-.89-.775c-.357-.192-.787-.288-1.287-.288zm33.667-4.877c-.834 0-1.58.154-2.239.462a5.087 5.087 0 0 0-1.688 1.264 5.66 5.66 0 0 0-1.075 1.863 6.731 6.731 0 0 0-.376 2.264c0 .784.125 1.534.376 2.251.25.718.608 1.348 1.075 1.89.467.541 1.03.97 1.688 1.287.66.316 1.405.475 2.24.475.816 0 1.558-.159 2.225-.475a5.102 5.102 0 0 0 1.701-1.288 5.755 5.755 0 0 0 1.076-1.889c.25-.717.375-1.467.375-2.25 0-.802-.125-1.556-.375-2.265a5.662 5.662 0 0 0-1.076-1.863 5.038 5.038 0 0 0-1.7-1.264c-.668-.308-1.41-.462-2.227-.462zm-11.48 5.903v2.802h-7.63v-2.802h7.63zm-47.051-4.928l-2.226 6.478h4.428l-2.202-6.478zm36.245-3.377v3.102h-3.152V12.09H97.1z"/>
</svg>
