<svg xmlns="http://www.w3.org/2000/svg" width="145" height="42" viewBox="0 0 145 42">
    <path fill="#FFF" fill-rule="evenodd" d="M41.928 0v42H0V0h41.928zM21.146 6.185c-1.355 0-2.687.18-3.966.522l-.478.136v13.08a3.947 3.947 0 0 1 2.678 3.753 3.947 3.947 0 0 1-3.945 3.95 3.947 3.947 0 0 1-3.945-3.95c0-1.686 1.05-3.12 2.52-3.699l.186-.067V7.883a15.13 15.13 0 0 0-3.646 2.696 14.919 14.919 0 0 0-4.386 10.6c0 4.007 1.567 7.775 4.386 10.614 2.834 2.824 6.594 4.392 10.596 4.392a15.03 15.03 0 0 0 3.452-.407l.478-.12V22.405a3.962 3.962 0 0 1-2.706-3.753 3.95 3.95 0 0 1 3.96-3.95 3.947 3.947 0 0 1 3.944 3.95 3.947 3.947 0 0 1-2.506 3.685l-.186.068v12.325a14.993 14.993 0 0 0 4.144-2.938 14.916 14.916 0 0 0 4.387-10.614c0-4.008-1.553-7.776-4.387-10.6a14.811 14.811 0 0 0-10.58-4.394zm98.035 5.455c1.215 0 2.348.23 3.396.687a8.77 8.77 0 0 1 2.746 1.876 8.765 8.765 0 0 1 1.848 2.79 8.73 8.73 0 0 1 .675 3.427c0 1.217-.225 2.36-.675 3.427a8.886 8.886 0 0 1-1.848 2.801 8.607 8.607 0 0 1-2.746 1.888 8.376 8.376 0 0 1-3.396.69 8.38 8.38 0 0 1-3.397-.69 8.618 8.618 0 0 1-2.746-1.888 8.903 8.903 0 0 1-1.848-2.8 8.725 8.725 0 0 1-.673-3.428c0-1.218.223-2.36.673-3.428a8.886 8.886 0 0 1 1.836-2.789 8.58 8.58 0 0 1 2.747-1.876 8.48 8.48 0 0 1 3.408-.687zm-36.332.45v5.753c.2-.2.582-.425 1.15-.675.565-.25 1.247-.375 2.046-.375.85 0 1.602.158 2.26.475.658.317 1.22.742 1.685 1.276a5.39 5.39 0 0 1 1.061 1.902c.242.733.364 1.508.364 2.326 0 .883-.155 1.713-.462 2.488a5.957 5.957 0 0 1-1.324 2.026 6.406 6.406 0 0 1-2.086 1.376c-.815.341-1.73.512-2.746.512s-1.953-.083-2.809-.25a17.29 17.29 0 0 1-1.878-.456l-.207-.068V12.09h2.946zm51.014 0l8.066 11.856V12.09H145v16.685h-3.096l-8.14-12.007v12.007h-3.071V12.09h3.17zm-71.39 0l6.318 16.684h-3.496l-1.449-4.227h-6.192l-1.449 4.227H52.91l6.318-16.684h3.247zm14.308 4.728c.283 0 .537.017.762.05.15.023.3.056.455.1l.232.076-.6 2.776a2.71 2.71 0 0 0-.611-.175 4.754 4.754 0 0 0-.737-.051c-.4 0-.783.068-1.15.202a2.712 2.712 0 0 0-1.584 1.475 2.745 2.745 0 0 0-.231.962l-.007.214v6.328h-2.946V17.044h2.821l.075 1.475c.133-.167.304-.35.512-.55.208-.2.453-.383.737-.55a4.347 4.347 0 0 1 2.272-.601zm20.052.226v11.73h-2.947v-11.73h2.947zM85.57 19.369c-.899 0-1.577.23-2.035.688-.412.413-.639.965-.68 1.654l-.007.235v4.427c.233.083.475.147.724.188.25.042.641.062 1.174.062.6 0 1.124-.103 1.574-.312.449-.209.831-.488 1.149-.839.315-.35.553-.754.71-1.213a4.29 4.29 0 0 0 .238-1.413c0-.45-.054-.884-.163-1.3a3.36 3.36 0 0 0-.51-1.114 2.583 2.583 0 0 0-.888-.775c-.358-.192-.787-.288-1.286-.288zm33.61-4.877c-.833 0-1.578.154-2.236.462a5.079 5.079 0 0 0-1.685 1.264 5.662 5.662 0 0 0-1.073 1.863 6.742 6.742 0 0 0-.375 2.264c0 .784.125 1.534.375 2.251.25.718.607 1.348 1.073 1.89a5.146 5.146 0 0 0 1.685 1.287c.658.316 1.403.475 2.236.475.815 0 1.556-.159 2.222-.475a5.094 5.094 0 0 0 1.698-1.288 5.757 5.757 0 0 0 1.074-1.889c.25-.717.374-1.467.374-2.25 0-.802-.124-1.556-.374-2.265a5.664 5.664 0 0 0-1.074-1.863 5.03 5.03 0 0 0-1.698-1.264c-.666-.308-1.407-.462-2.222-.462zm-11.462 5.903v2.802h-7.616v-2.802h7.616zm-46.97-4.928l-2.222 6.478h4.42l-2.197-6.478zm36.184-3.377v3.102h-3.147V12.09h3.147z"/>
</svg>
