<svg xmlns="http://www.w3.org/2000/svg" width="33" height="32" viewBox="0 0 33 32">
    <path fill="#fff" fill-rule="evenodd" d="M16.604 0c8.802 0 15.937 7.096 15.937 15.852 0 8.753-7.135 15.85-15.937 15.85-8.803 0-15.938-7.097-15.938-15.85C.666 7.096 7.8 0 16.604 0zm.836 14h-1.668c-1.945.003-3.895.03-5.825.244a2.241 2.241 0 0 0-1.92 1.739c-.31 1.34-.314 2.801-.314 4.18v.462c.004 1.24.034 2.528.309 3.717.218.941.99 1.635 1.922 1.74 2.205.243 4.437.244 6.659.243h.834c1.946-.003 3.895-.03 5.825-.244a2.244 2.244 0 0 0 1.921-1.739c.31-1.338.31-2.8.31-4.179 0-1.379.004-2.84-.305-4.18a2.245 2.245 0 0 0-1.923-1.739C21.059 14 18.829 14 16.605 14zm5.28 4.615c.54 0 .968.201 1.267.605.226.3.333.76.333 1.39v1.222h-2.15v1.046c0 .545.182.817.55.817.266 0 .419-.142.48-.427.01-.059.025-.296.025-.724h1.095v.155c0 .346-.013.582-.023.69-.036.235-.12.45-.251.64-.298.428-.737.639-1.3.639-.561 0-.99-.201-1.3-.605-.228-.295-.344-.76-.344-1.386v-2.066c0-.63.104-1.091.331-1.39.31-.405.737-.606 1.287-.606zm-8.11 0v4.553c.001.116.003.181.01.204.027.166.108.25.251.25.217 0 .441-.164.68-.5v-4.507h1.076v5.9h-1.076v-.645c-.426.487-.832.725-1.227.725-.346 0-.585-.141-.693-.439-.06-.179-.096-.46-.096-.877v-4.664h1.075zm3.783-2.15v2.585c.347-.425.717-.64 1.112-.64.427 0 .715.225.858.667.072.237.108.627.108 1.186v2.348c0 .545-.036.938-.108 1.188-.143.438-.431.663-.858.663-.383 0-.752-.212-1.112-.652v.572H17.32v-7.917h1.074zm-5.435 0v1.113H11.67v6.804h-1.195v-6.804H9.21v-1.113h3.747zm5.972 2.908c-.177 0-.357.084-.537.26v3.594c.18.179.36.263.537.263.31 0 .466-.263.466-.795v-2.518c0-.532-.157-.804-.466-.804zm3.78.205c-.358 0-.538.273-.538.82v.544h1.075v-.545c0-.546-.18-.819-.537-.819zM19.46 7.414h-1.083v4.713c0 .421.037.706.096.887.11.3.35.443.7.443.397 0 .808-.24 1.24-.733v.65H21.5v-5.96h-1.086v4.556c-.24.337-.468.505-.686.505-.145 0-.231-.085-.255-.253a.939.939 0 0 1-.013-.206V7.414zm-3.58-.073c-.54 0-.964.205-1.265.612-.231.302-.34.768-.34 1.404v2.087c0 .634.109 1.104.34 1.402.3.407.724.61 1.266.61.543 0 .966-.203 1.266-.61.227-.298.337-.768.337-1.402V9.357c0-.636-.11-1.104-.337-1.404-.3-.407-.723-.612-1.266-.612zm-4.508-1.965h-1.268c.255.741.52 1.486.772 2.228.387 1.117.628 1.958.737 2.53v3.24h1.204v-3.24l1.45-4.758h-1.219l-.822 3.14-.854-3.14zm4.407 2.687c.349 0 .517.276.517.826v2.507c0 .553-.168.828-.517.828-.35 0-.52-.275-.52-.828V8.889c0-.55.17-.826.52-.826z"/>
</svg>
