<svg xmlns="http://www.w3.org/2000/svg" width="89" height="89" viewBox="0 0 89 89">
    <g fill="none" fill-rule="evenodd">
        <path fill="#FFF" d="M0 0h88.4v88.4H0z"/>
        <path fill="#00948E" d="M39.818 24.7c.49 0 .889.397.889.887v11.702h.141c2.565 0 4.652 2.082 4.652 4.641v7.74c0 2.56-2.087 4.642-4.652 4.642h-.141v7.447c0 .49-.398.886-.89.886H.89A.888.888 0 0 1 0 61.76V25.587c0-.49.398-.887.889-.887zm-.889 1.773H1.777v6.035h24.148a.888.888 0 1 1 0 1.773H1.777v26.591h2.489v-6.206a.888.888 0 0 1 1.777 0v6.206h32.886v-6.56h-9.302l-7.024 3.536a.89.89 0 0 1-1.27-.97l1.062-5.181V41.93c0-2.559 2.086-4.64 4.651-4.64H38.93V34.28h-5.125a.888.888 0 1 1 0-1.773h5.125v-6.035zm1.92 12.59H27.045a2.874 2.874 0 0 0-2.874 2.867v9.681c.015.101.012.205-.009.307l-.722 3.522 5.574-2.807a.89.89 0 0 1 .4-.095h11.433a2.874 2.874 0 0 0 2.875-2.867v-7.74a2.874 2.874 0 0 0-2.875-2.869zM15.592 51.484c.492 0 .89.384.89.858s-.398.859-.89.859H9.647c-.492 0-.89-.385-.89-.859s.398-.858.89-.858zM5.154 49.613a.892.892 0 0 1 .889.887.892.892 0 0 1-.889.886.892.892 0 0 1-.889-.887.892.892 0 0 1 .89-.886zm28.842-.017c.226 0 .448.092.607.252.16.16.252.38.252.607a.865.865 0 0 1-.252.607.865.865 0 0 1-.607.251.865.865 0 0 1-.607-.251.865.865 0 0 1-.251-.607c0-.226.092-.448.251-.607a.865.865 0 0 1 .607-.252zM19.54 47.364c.492 0 .892.385.892.859s-.4.858-.892.858H9.65c-.494 0-.893-.384-.893-.858s.4-.859.892-.859zm14.37-7.04c1.847 0 3.348 1.52 3.348 3.387a3.386 3.386 0 0 1-2.467 3.268v.352a.886.886 0 0 1-.88.892.886.886 0 0 1-.882-.892v-1.125c0-.492.395-.89.881-.89.875 0 1.586-.72 1.586-1.605 0-.884-.711-1.604-1.586-1.604-.874 0-1.586.72-1.586 1.604a.886.886 0 0 1-.88.891.886.886 0 0 1-.882-.89c0-1.868 1.502-3.387 3.348-3.387zm-18.317 2.233c.492 0 .89.384.89.858s-.398.859-.89.859H9.647c-.492 0-.89-.385-.89-.859s.398-.858.89-.858zm3.947-4.121c.492 0 .892.384.892.858s-.4.859-.892.859H9.65c-.494 0-.893-.385-.893-.859s.4-.858.892-.858zm10.164-5.838c.226 0 .447.092.607.252.16.16.251.38.251.607a.865.865 0 0 1-.251.607.865.865 0 0 1-.607.251.865.865 0 0 1-.607-.251.865.865 0 0 1-.252-.607c0-.226.092-.448.252-.607a.865.865 0 0 1 .607-.252zm-24.04-3.777c.473 0 .86.384.86.858s-.379.859-.852.859a.86.86 0 1 1-.008-1.717zm4.292 0c.473 0 .861.384.861.858s-.38.859-.852.859a.86.86 0 1 1-.009-1.717zm4.293 0c.473 0 .86.384.86.858s-.379.859-.852.859a.86.86 0 1 1-.008-1.717zm20.753 0c.487 0 .883.384.883.858a.871.871 0 0 1-.883.859H24.578a.871.871 0 0 1-.884-.859c0-.474.396-.858.884-.858z"/>
    </g>
</svg>
