<svg xmlns="http://www.w3.org/2000/svg" width="89" height="89" viewBox="0 0 89 89">
    <g fill="none" fill-rule="evenodd">
        <path fill="#FFF" d="M0 0h88.4v88.4H0z"/>
        <path fill="#00948E" d="M13.891 59.993a.898.898 0 0 1 1.264 0 .882.882 0 0 1 0 1.254l-6.051 6.005a.898.898 0 0 1-1.263 0 .882.882 0 0 1 0-1.254zm-7.145 0a.898.898 0 0 1 1.263 0 .882.882 0 0 1 0 1.254l-6.051 6.005a.898.898 0 0 1-1.263 0 .882.882 0 0 1 0-1.254zm13.37-1.321a.89.89 0 0 1 1.258 1.257l-2.515 2.515a.89.89 0 0 1-1.257-1.257zM6.311 52.469a.898.898 0 0 1 1.264 0 .882.882 0 0 1 0 1.254l-6.05 6.006a.898.898 0 0 1-1.263 0 .882.882 0 0 1 0-1.254zM44.581 22.1a.885.885 0 0 1 .918.916c-.007.2-.199 4.966-2.206 10.631-1.607 4.54-3.907 8.323-6.837 11.247a33.75 33.75 0 0 1-2.076 1.902c1.705 2.89 1.17 5.206.385 6.67-1.809 3.371-6.719 5.458-10.231 5.458a.884.884 0 1 1-.627-1.511c1.781-1.778 1.67-3.97 1.575-4.687l-.31-.31a31.267 31.267 0 0 1-4.31 1.462 2.512 2.512 0 0 1-1.542-.107 8.384 8.384 0 0 1-1.69 2.39c-2.283 2.279-7.85 2.742-8.086 2.76a.889.889 0 0 1-.954-.952c.018-.235.482-5.789 2.766-8.068a8.403 8.403 0 0 1 2.396-1.685 2.5 2.5 0 0 1-.107-1.538 31.086 31.086 0 0 1 1.466-4.3l-.311-.31c-.718-.094-2.916-.205-4.699 1.573a.889.889 0 0 1-1.515-.626c0-3.504 2.092-8.402 5.471-10.207 1.468-.783 3.79-1.317 6.687.385a33.718 33.718 0 0 1 1.906-2.071c2.93-2.924 6.723-5.218 11.274-6.821 5.679-2.003 10.456-2.194 10.657-2.201zM14.883 49.665c-.796.29-1.589.808-2.272 1.49-1.22 1.216-1.864 4.072-2.127 5.877 1.81-.263 4.672-.905 5.892-2.122.683-.681 1.201-1.472 1.493-2.266zm18.094-1.748a35.908 35.908 0 0 1-6.077 3.72c.01.017.198.16.27.447.31 1.232.123 3.265-.727 4.862 2.667-.55 5.595-2.147 6.757-4.314.777-1.448.7-3.031-.223-4.715zm-16.505-4.18a28.696 28.696 0 0 0-1.108 3.382c-.065.256.031.552.252.773l2.24 2.234-.002-.001.005.005-.003-.004.004.005.008.008.025.025.023.023.015.015.01.01.01.01.022.021-.012-.011.048.048-.006-.007.034.034-.011-.01.027.026 1.401 1.398.192.192c.221.22.519.316.776.25a28.843 28.843 0 0 0 3.388-1.105zm17.52-17.575c-4.065 1.503-7.457 3.59-10.086 6.212-.8.798-1.572 1.657-2.296 2.554a33.993 33.993 0 0 0-4.385 7.057l8.343 8.323a34.107 34.107 0 0 0 7.074-4.375 32.183 32.183 0 0 0 2.559-2.29c2.63-2.623 4.721-6.008 6.227-10.063zM7.577 46.2a.898.898 0 0 1 1.263 0 .882.882 0 0 1 0 1.254l-2.527 2.508a.898.898 0 0 1-1.264 0 .882.882 0 0 1 0-1.254zm18.865-6.237a.905.905 0 0 1 1.28 1.28l-1.28 1.28a.905.905 0 0 1-1.28-1.28zm-6.82-5.37c-1.688-.92-3.274-.997-4.726-.222-2.172 1.16-3.773 4.08-4.325 6.742 2.383-1.263 4.73-.76 4.853-.732.296.067.456.267.47.275a35.778 35.778 0 0 1 3.728-6.062zm9.304-2.217a4.443 4.443 0 0 1 6.275 0 4.417 4.417 0 0 1 0 6.26 4.45 4.45 0 0 1-6.274 0 4.425 4.425 0 0 1 0-6.26zm5.02 1.252a2.666 2.666 0 0 0-3.765 0 2.655 2.655 0 0 0 0 3.756 2.67 2.67 0 0 0 3.765 0 2.65 2.65 0 0 0 0-3.756zm9.706-9.682a39.98 39.98 0 0 0-7.787 1.58l6.203 6.188a39.722 39.722 0 0 0 1.584-7.768z"/>
    </g>
</svg>
