<svg xmlns="http://www.w3.org/2000/svg" width="89" height="89" viewBox="0 0 89 89">
    <g fill="none" fill-rule="evenodd">
        <path fill="#FFF" d="M0 0h88.4v88.4H0z"/>
        <path fill="#00948E" d="M34.328 22.1l.698 2.728c.694.214 1.366.49 2.003.826l2.426-1.436 3.921 3.91-1.44 2.42c.336.635.613 1.304.827 1.998l2.737.695v5.53l-2.736.695a11.606 11.606 0 0 1-.828 1.998l1.44 2.42-3.92 3.91-2.427-1.436c-.636.335-1.308.611-2.003.825l-.697 2.73h-5.544l-.698-2.73c-.066-.02-.133-.053-.2-.074v.378c0 8.892-5.368 16.719-13.678 19.94l-.265.104-.266-.103C5.368 64.206 0 56.378 0 47.488V36.005h5.085c3.15 0 6.112-1.223 8.34-3.445l.519-.517.518.517c.933.931 2 1.674 3.15 2.238v-1.557l2.737-.696c.214-.693.491-1.362.828-1.998l-1.44-2.42 3.92-3.91 2.426 1.437a11.655 11.655 0 0 1 2.004-.826l.697-2.729h5.544zM13.944 34.087a13.186 13.186 0 0 1-8.859 3.383H1.468v10.017c0 8.188 4.886 15.407 12.476 18.471 7.589-3.063 12.475-10.282 12.475-18.47V37.47h-3.617a13.186 13.186 0 0 1-8.858-3.383zm0 1.907l.42.296a14.634 14.634 0 0 0 8.438 2.644h2.15v8.553c0 7.276-4.1 13.692-10.7 16.744l-.308.142-.31-.142C7.036 61.179 2.935 54.763 2.935 47.487v-8.553h2.15c3.048 0 5.966-.914 8.437-2.645l.422-.295zm0 1.779a16.095 16.095 0 0 1-8.859 2.625h-.682v7.09c0 6.585 3.647 12.404 9.54 15.268 5.895-2.864 9.54-8.683 9.54-15.269v-7.09h-.68c-3.181 0-6.233-.905-8.86-2.624zm6.566 4.13V56.52H12.14l-4.83-4.814v-9.803H20.51zm-1.467 1.462H8.775v7.308h4.4v4.385h5.868V43.365zm-7.334 8.77H9.812l1.897 1.89v-1.89zm5.737-1.51v1.415h-2.83v-1.414h2.83zm.235-2.828v1.414h-7.308v-1.414h7.308zm15.506-24.233h-3.262L29.3 26.01l-.414.112c-.864.232-1.688.57-2.449 1.009l-.372.214-2.177-1.289-2.307 2.301 1.292 2.171-.215.372c-.44.759-.78 1.58-1.012 2.442l-.112.413-2.453.624v1.02c1.17.387 2.401.599 3.669.604.001-4.842 3.951-8.78 8.806-8.78 4.857 0 8.807 3.939 8.807 8.782s-3.95 8.783-8.807 8.783a8.784 8.784 0 0 1-3.668-.801v1.569c.335.129.67.245.997.333l.415.11.626 2.449h3.262L33.813 46l.414-.111c.864-.232 1.688-.571 2.449-1.01l.372-.213 2.177 1.288 2.307-2.301-1.292-2.171.215-.371c.44-.76.78-1.581 1.012-2.442l.111-.413 2.454-.625V34.38l-2.454-.623-.111-.413a10.157 10.157 0 0 0-1.012-2.442l-.215-.372 1.292-2.17-2.307-2.302-2.177 1.289-.372-.214a10.176 10.176 0 0 0-2.449-1.01l-.414-.111-.626-2.447zM17.681 44.732v1.415h-7.308v-1.415h7.308zm13.875-16.045c-4.046 0-7.338 3.283-7.338 7.32h1.467c0-3.23 2.634-5.856 5.871-5.856 3.237 0 5.871 2.627 5.871 5.855 0 3.228-2.634 5.855-5.87 5.855a5.815 5.815 0 0 1-3.67-1.295v1.754a7.299 7.299 0 0 0 3.67 1.005c4.046 0 7.338-3.283 7.338-7.319s-3.292-7.319-7.339-7.319zm0 2.928a4.402 4.402 0 0 0-4.403 4.391h.734v2.404a4.366 4.366 0 0 0 3.67 1.988 4.402 4.402 0 0 0 4.403-4.392 4.402 4.402 0 0 0-4.404-4.391z"/>
    </g>
</svg>
