<svg xmlns="http://www.w3.org/2000/svg" width="89" height="89" viewBox="0 0 89 89">
    <g fill="none" fill-rule="evenodd">
        <path fill="#FFF" d="M0 0h88.4v88.4H0z"/>
        <path fill="#00948E" d="M39.298 40.975a3.563 3.563 0 0 1 4.993-.398 3.577 3.577 0 0 1 .423 5.028c-8.357 10.011-8.026 9.623-8.066 9.659a7.96 7.96 0 0 1-5.589 2.277H19.231a2.65 2.65 0 0 0-1.852.75l-.928.897a2.7 2.7 0 0 1-.633 2.767l-4.314 4.26a.888.888 0 0 1-1.256-.008L.258 56.118A.893.893 0 0 1 .26 54.86l4.232-4.255a2.655 2.655 0 0 1 2.38-.739c2.008-3.718 5.749-5.702 10.033-5.702 1.546 0 3.044.3 4.455.892h9.922c1.092 0 2.103.51 2.766 1.327zM6.853 51.74a.886.886 0 0 0-1.101.126L2.145 55.49l8.742 8.83 3.677-3.632a.894.894 0 0 0-.005-1.256c-7.806-7.814-7.568-7.613-7.696-7.687zm36.29-9.8a1.783 1.783 0 0 0-2.508.213c-.03.036-.747.771-5.825 6.004a3.567 3.567 0 0 1-3.528 4.033h-7.26a.89.89 0 0 1 0-1.783h7.26a1.784 1.784 0 0 0 0-3.567H21.178a.89.89 0 0 1-.356-.075 9.694 9.694 0 0 0-3.918-.817c-3.801 0-6.859 1.742-8.488 4.805l6.97 6.986.757-.731a4.42 4.42 0 0 1 3.088-1.25H31.06a6.188 6.188 0 0 0 4.313-1.739l7.98-9.562a1.79 1.79 0 0 0-.208-2.517zm-23.528 8.61a.864.864 0 0 1 1.22 1.221.864.864 0 0 1-1.22-1.22zm6.899-29.75c5.396 0 9.787 4.4 9.787 9.81 0 5.408-4.39 9.809-9.787 9.809-5.396 0-9.787-4.4-9.787-9.81 0-5.409 4.39-9.809 9.787-9.809zm0 1.784c-4.416 0-8.008 3.6-8.008 8.026 0 4.425 3.592 8.025 8.008 8.025 4.415 0 8.008-3.6 8.008-8.025 0-4.426-3.593-8.026-8.008-8.026zm-.115 1.837c.492 0 .89.4.89.894v1.04c.406.136.858.384 1.309.823a.897.897 0 0 1 .02 1.263.886.886 0 0 1-1.257.02c-.314-.305-.646-.467-.962-.467a.892.892 0 0 0 0 1.787 2.677 2.677 0 0 1 2.668 2.68 2.684 2.684 0 0 1-1.778 2.527v1.047a.891.891 0 0 1-.89.893c-.49 0-.888-.4-.888-.893v-1.043c-.593-.2-1.152-.595-1.627-1.163a.896.896 0 0 1 .108-1.259.886.886 0 0 1 1.253.109c.365.436.775.676 1.154.676a.892.892 0 0 0 0-1.786 2.677 2.677 0 0 1-2.667-2.68c0-1.165.744-2.159 1.779-2.527v-1.047c0-.494.398-.894.888-.894z"/>
    </g>
</svg>
