<svg xmlns="http://www.w3.org/2000/svg" width="89" height="89" viewBox="0 0 89 89">
    <g fill="none" fill-rule="evenodd">
        <path fill="#FFF" d="M0 0h88.4v88.4H0z"/>
        <path fill="#00948E" d="M22.728 20.8c1.008 0 1.99.586 2.938 1.152.589.352 1.198.715 1.621.8.426.084 1.04-.06 1.633-.2.895-.21 1.908-.45 2.835-.064.946.393 1.499 1.29 1.987 2.082.315.511.64 1.04.987 1.273.352.236.968.337 1.565.435.91.15 1.943.32 2.66 1.038.717.718.887 1.753 1.036 2.666.098.598.2 1.216.435 1.57.231.346.76.673 1.27.989.79.488 1.684 1.042 2.076 1.99.384.93.147 1.946-.063 2.842-.14.595-.284 1.21-.2 1.637.085.424.447 1.035.798 1.625.565.95 1.15 1.934 1.15 2.945 0 1.01-.585 1.994-1.15 2.946l-.117.197c-.31.527-.606 1.05-.68 1.429-.084.426.06 1.04.199 1.635.21.896.447 1.912.063 2.842-.392.947-1.287 1.501-2.076 1.99-.51.316-1.039.642-1.27.99-.235.353-.337.97-.435 1.57-.15.912-.319 1.947-1.036 2.665-.716.717-1.748.887-2.658 1.037-.596.098-1.214.2-1.567.437-.347.232-.672.76-.988 1.272-.487.791-1.04 1.688-1.985 2.08-.928.386-1.94.148-2.834-.062-.595-.14-1.208-.283-1.634-.199-.424.084-1.034.448-1.624.8-.948.565-1.928 1.15-2.936 1.15-1.009 0-1.99-.585-2.939-1.15-.59-.352-1.199-.716-1.622-.8-.426-.084-1.04.06-1.634.2-.894.209-1.907.447-2.834.062-.945-.393-1.498-1.29-1.985-2.081-.316-.511-.642-1.04-.988-1.272-.353-.237-.97-.34-1.568-.437-.91-.15-1.941-.32-2.658-1.037-.716-.72-.885-1.753-1.034-2.665-.098-.598-.2-1.217-.436-1.57-.232-.348-.76-.674-1.27-.99-.789-.489-1.684-1.042-2.075-1.99-.385-.93-.148-1.945.062-2.841.139-.595.283-1.21.198-1.636-.084-.426-.446-1.037-.797-1.628C.584 45.574 0 44.59 0 43.58s.584-1.993 1.148-2.944c.351-.591.713-1.201.797-1.626.085-.428-.06-1.043-.198-1.638-.21-.895-.447-1.91-.062-2.84.391-.949 1.286-1.502 2.075-1.991.51-.316 1.038-.643 1.27-.99.237-.354.338-.973.436-1.57.15-.913.318-1.947 1.034-2.665.718-.718 1.75-.888 2.662-1.038.596-.098 1.212-.2 1.564-.435.346-.232.672-.762.987-1.273.488-.792 1.04-1.689 1.986-2.082.928-.385 1.94-.147 2.835.063.594.14 1.207.285 1.632.2.424-.084 1.033-.447 1.622-.8.95-.565 1.931-1.151 2.94-1.151zm0 1.78c-.52 0-1.323.478-2.031.901-.719.429-1.462.873-2.186 1.016-.802.159-1.605-.03-2.382-.213-.664-.156-1.351-.317-1.75-.152-.416.173-.792.783-1.155 1.373-.415.673-.844 1.369-1.51 1.817-.672.45-1.482.584-2.265.712-.678.112-1.38.227-1.693.54-.312.313-.427 1.015-.538 1.694-.129.786-.262 1.599-.713 2.274-.446.667-1.14 1.097-1.812 1.513-.588.364-1.196.74-1.369 1.158-.165.4-.004 1.088.152 1.753.182.78.37 1.585.21 2.389-.142.725-.584 1.47-1.012 2.191-.421.71-.898 1.513-.898 2.034 0 .52.477 1.325.898 2.035.428.72.87 1.465 1.013 2.192.159.803-.03 1.608-.211 2.387-.156.665-.317 1.353-.151 1.754.172.416.78.793 1.369 1.157.671.416 1.365.846 1.811 1.513.451.674.584 1.487.713 2.273.111.68.226 1.381.539 1.694.311.313 1.012.428 1.689.54.784.129 1.595.262 2.268.715.666.446 1.095 1.142 1.51 1.815.364.589.739 1.199 1.155 1.372.399.166 1.086.004 1.75-.152.788-.185 1.585-.37 2.382-.212.724.144 1.467.587 2.186 1.016.708.422 1.51.9 2.03.9.52 0 1.322-.478 2.03-.9.718-.43 1.462-.872 2.187-1.016.801-.159 1.605.03 2.382.212.664.156 1.351.318 1.75.152.416-.173.791-.783 1.155-1.372.415-.673.844-1.37 1.51-1.816.673-.452 1.484-.585 2.268-.714.678-.112 1.378-.227 1.69-.54.313-.313.428-1.016.539-1.695.129-.785.262-1.597.712-2.271.445-.669 1.14-1.098 1.812-1.514.588-.364 1.197-.741 1.37-1.158.164-.4.003-1.088-.153-1.753-.182-.78-.37-1.584-.212-2.388.143-.726.586-1.47 1.013-2.19.422-.71.9-1.515.9-2.036 0-.521-.478-1.325-.9-2.034-.427-.72-.87-1.465-1.013-2.191-.159-.805.03-1.61.212-2.389.156-.665.317-1.354.152-1.754-.173-.416-.78-.793-1.37-1.157-.671-.416-1.366-.846-1.811-1.514-.45-.674-.583-1.486-.712-2.271-.111-.68-.227-1.383-.54-1.695-.312-.314-1.013-.43-1.692-.54-.783-.13-1.592-.263-2.265-.713-.666-.448-1.096-1.144-1.51-1.817-.364-.59-.74-1.2-1.155-1.373-.399-.165-1.086-.004-1.75.152-.777.183-1.58.372-2.383.213-.724-.144-1.468-.587-2.186-1.016-.707-.423-1.51-.901-2.03-.901zm.022 3.541c9.301 0 17.384 8.164 17.384 17.492 0 9.359-8.113 17.492-17.384 17.492-9.302 0-17.384-8.164-17.384-17.492 0-9.36 8.113-17.492 17.384-17.492zm0 1.785c-8.316 0-15.61 7.34-15.61 15.707S14.433 59.32 22.75 59.32c8.316 0 15.61-7.34 15.61-15.707 0-8.368-7.294-15.707-15.61-15.707zm-.107 7.873c.339 0 .648.191.797.493l2.27 4.582 5.077.734a.883.883 0 1 1 .493 1.51l-3.673 3.566.867 5.035a.883.883 0 0 1-.354.866.892.892 0 0 1-.937.067l-4.54-2.377-4.541 2.377a.892.892 0 0 1-.937-.067.883.883 0 0 1-.354-.866l.867-5.035-3.674-3.566a.883.883 0 0 1 .493-1.51l5.078-.734 2.27-4.582a.889.889 0 0 1 .798-.493zm0 2.887l-1.68 3.389a.89.89 0 0 1-.67.484l-3.757.544 2.719 2.638c.21.203.305.496.255.783l-.641 3.726 3.36-1.759a.892.892 0 0 1 .828 0l3.359 1.76-.641-3.727a.883.883 0 0 1 .255-.783l2.719-2.638-3.757-.544a.889.889 0 0 1-.67-.484l-1.68-3.39zm-12.88 5.803a.89.89 0 0 1 0 1.78.89.89 0 0 1 0-1.78zm12.959-14.914c.49 0 .886.401.886.897a.892.892 0 0 1-.886.896c-5.664 0-11.133 4.822-11.943 10.53a.89.89 0 0 1-1.004.76.895.895 0 0 1-.752-1.015c.929-6.544 7.027-12.068 13.699-12.068z"/>
    </g>
</svg>
