<svg xmlns="http://www.w3.org/2000/svg" width="89" height="89" viewBox="0 0 89 89">
    <g fill="none" fill-rule="evenodd">
        <path fill="#FFF" d="M0 0h88.4v88.4H0z"/>
        <path fill="#00948E" d="M30.735 22.1a3.027 3.027 0 0 1 .73 5.962v2.26a17.842 17.842 0 0 1 8.778 4.828 18.022 18.022 0 0 1 5.17 10.923 18.05 18.05 0 0 1-2.796 11.566.888.888 0 1 1-1.49-.97c4.127-6.364 3.227-14.886-2.141-20.26-6.306-6.316-16.567-6.316-22.874 0-6.306 6.314-6.306 16.59 0 22.905 5.375 5.382 13.892 6.278 20.251 2.132a.89.89 0 0 1 .97 1.491 17.977 17.977 0 0 1-11.558 2.813 17.975 17.975 0 0 1-10.92-5.178 17.871 17.871 0 0 1-4.087-6.33H4.443a.89.89 0 0 1 0-1.78h5.758a18.084 18.084 0 0 1-.555-3.42H5.688a.89.89 0 0 1 0-1.78h3.93a18.1 18.1 0 0 1 .44-3.42H.889a.89.89 0 0 1 0-1.78h9.673c.4-1.181.925-2.329 1.577-3.421H6.947a.89.89 0 0 1 0-1.78h6.332c.023 0 .046.002.068.004.46-.596.963-1.169 1.509-1.715a17.835 17.835 0 0 1 8.751-4.82v-2.268a3.027 3.027 0 0 1 .73-5.962zm-3.178 12.019c7.622 0 13.822 6.2 13.822 13.822 0 7.62-6.2 13.821-13.822 13.821-7.62 0-13.821-6.2-13.821-13.821 0-7.622 6.2-13.822 13.821-13.822zm12.105 24.896c.226 0 .447.092.607.252.16.16.252.38.252.607a.866.866 0 0 1-.252.607.86.86 0 0 1-1.466-.607.86.86 0 0 1 .86-.859zM27.557 35.901c-6.638 0-12.04 5.4-12.04 12.04 0 6.638 5.402 12.04 12.04 12.04 6.64 0 12.04-5.402 12.04-12.04 0-6.64-5.4-12.04-12.04-12.04zm.044 19.786c.492 0 .89.396.89.884v.82a.888.888 0 0 1-.89.884.888.888 0 0 1-.89-.884v-.82c0-.488.398-.884.89-.884zM.89 52.507a.888.888 0 0 1 .89.885.888.888 0 0 1-.89.884.886.886 0 0 1-.89-.885.888.888 0 0 1 .89-.884zm32.275-11.602a.885.885 0 0 1 1.257 0 .898.898 0 0 1 0 1.264l-4.402 4.428c.181.37.285.787.285 1.227a2.773 2.773 0 0 1-2.763 2.778 2.773 2.773 0 0 1-2.761-2.778c0-.44.102-.857.285-1.227l-1.97-1.982a.897.897 0 0 1 0-1.264.885.885 0 0 1 1.256 0l1.97 1.982a2.732 2.732 0 0 1 2.44 0zm-5.623 5.93a.988.988 0 0 0-.984.989c0 .546.442.99.984.99a.988.988 0 0 0 .985-.99.988.988 0 0 0-.985-.99zm9.522.161a.87.87 0 0 1 .88.859.87.87 0 0 1-.88.858h-.815a.87.87 0 0 1-.88-.858.87.87 0 0 1 .88-.859zm-18.2 0a.87.87 0 0 1 .88.859.87.87 0 0 1-.88.858h-.815a.87.87 0 0 1-.88-.858.87.87 0 0 1 .88-.859zm8.778-9.443a.87.87 0 0 1 .859.88v.815a.87.87 0 0 1-.859.88.87.87 0 0 1-.858-.88v-.815a.87.87 0 0 1 .858-.88zm2.044-9.401h-4.303v1.871a18.07 18.07 0 0 1 4.303-.003v-1.868zm1.048-4.272h-6.399a1.246 1.246 0 0 0 0 2.492h6.4a1.246 1.246 0 0 0 0-2.492z"/>
    </g>
</svg>
